<mxfile host="app.diagrams.net" modified="2022-03-08T09:49:40.550Z" agent="5.0 (Windows NT 10.0; Win64; x64) AppleWebKit/537.36 (KHTML, like Gecko) Chrome/99.0.4844.51 Safari/537.36" etag="Wx_4b3XXfE0BgeZ5JRjh" version="16.6.6" type="github" pages="3">
  <diagram id="LUQToRBx5XMqPCteTAM2" name="Page-1">
    <mxGraphModel dx="1038" dy="556" grid="1" gridSize="10" guides="1" tooltips="1" connect="1" arrows="1" fold="1" page="1" pageScale="1" pageWidth="827" pageHeight="1169" math="0" shadow="0">
      <root>
        <mxCell id="0" />
        <mxCell id="1" parent="0" />
        <mxCell id="IPOm-Gge5yzKx4CYsUPy-2" value="Automated Banking System&lt;div&gt;&lt;/div&gt;" style="rounded=0;whiteSpace=wrap;html=1;align=center;verticalAlign=top;" parent="1" vertex="1">
          <mxGeometry x="194" y="130" width="440" height="660" as="geometry" />
        </mxCell>
        <mxCell id="IPOm-Gge5yzKx4CYsUPy-3" value="Customer" style="shape=umlActor;verticalLabelPosition=bottom;verticalAlign=top;html=1;outlineConnect=0;" parent="1" vertex="1">
          <mxGeometry x="70" y="280" width="80" height="180" as="geometry" />
        </mxCell>
        <mxCell id="IPOm-Gge5yzKx4CYsUPy-10" value="Bank" style="shape=umlActor;verticalLabelPosition=bottom;verticalAlign=top;html=1;outlineConnect=0;" parent="1" vertex="1">
          <mxGeometry x="690" y="280" width="70" height="130" as="geometry" />
        </mxCell>
        <mxCell id="IPOm-Gge5yzKx4CYsUPy-12" value="Login" style="ellipse;whiteSpace=wrap;html=1;" parent="1" vertex="1">
          <mxGeometry x="300" y="170" width="120" height="80" as="geometry" />
        </mxCell>
        <mxCell id="IPOm-Gge5yzKx4CYsUPy-13" value="Select Account" style="ellipse;whiteSpace=wrap;html=1;" parent="1" vertex="1">
          <mxGeometry x="294" y="290" width="120" height="80" as="geometry" />
        </mxCell>
        <mxCell id="IPOm-Gge5yzKx4CYsUPy-14" value="Check Balance" style="ellipse;whiteSpace=wrap;html=1;" parent="1" vertex="1">
          <mxGeometry x="294" y="400" width="120" height="80" as="geometry" />
        </mxCell>
        <mxCell id="IPOm-Gge5yzKx4CYsUPy-15" value="Deposit" style="ellipse;whiteSpace=wrap;html=1;" parent="1" vertex="1">
          <mxGeometry x="294" y="505" width="120" height="80" as="geometry" />
        </mxCell>
        <mxCell id="IPOm-Gge5yzKx4CYsUPy-16" value="Withdraw" style="ellipse;whiteSpace=wrap;html=1;" parent="1" vertex="1">
          <mxGeometry x="294" y="620" width="120" height="80" as="geometry" />
        </mxCell>
        <mxCell id="IPOm-Gge5yzKx4CYsUPy-24" value="" style="endArrow=none;html=1;rounded=0;" parent="1" target="IPOm-Gge5yzKx4CYsUPy-12" edge="1">
          <mxGeometry width="50" height="50" relative="1" as="geometry">
            <mxPoint x="150" y="350" as="sourcePoint" />
            <mxPoint x="180" y="170" as="targetPoint" />
          </mxGeometry>
        </mxCell>
        <mxCell id="IPOm-Gge5yzKx4CYsUPy-25" value="" style="endArrow=none;html=1;rounded=0;entryX=0;entryY=0.5;entryDx=0;entryDy=0;" parent="1" target="IPOm-Gge5yzKx4CYsUPy-13" edge="1">
          <mxGeometry width="50" height="50" relative="1" as="geometry">
            <mxPoint x="150" y="350" as="sourcePoint" />
            <mxPoint x="590" y="410" as="targetPoint" />
            <Array as="points" />
          </mxGeometry>
        </mxCell>
        <mxCell id="IPOm-Gge5yzKx4CYsUPy-26" value="" style="endArrow=none;html=1;rounded=0;entryX=0;entryY=0.5;entryDx=0;entryDy=0;" parent="1" target="IPOm-Gge5yzKx4CYsUPy-14" edge="1">
          <mxGeometry width="50" height="50" relative="1" as="geometry">
            <mxPoint x="150" y="350" as="sourcePoint" />
            <mxPoint x="590" y="410" as="targetPoint" />
          </mxGeometry>
        </mxCell>
        <mxCell id="IPOm-Gge5yzKx4CYsUPy-27" value="" style="endArrow=none;html=1;rounded=0;entryX=0;entryY=0.5;entryDx=0;entryDy=0;" parent="1" target="IPOm-Gge5yzKx4CYsUPy-15" edge="1">
          <mxGeometry width="50" height="50" relative="1" as="geometry">
            <mxPoint x="150" y="350" as="sourcePoint" />
            <mxPoint x="590" y="410" as="targetPoint" />
          </mxGeometry>
        </mxCell>
        <mxCell id="IPOm-Gge5yzKx4CYsUPy-28" value="" style="endArrow=none;html=1;rounded=0;entryX=0;entryY=0.5;entryDx=0;entryDy=0;" parent="1" target="IPOm-Gge5yzKx4CYsUPy-16" edge="1">
          <mxGeometry width="50" height="50" relative="1" as="geometry">
            <mxPoint x="150" y="350" as="sourcePoint" />
            <mxPoint x="590" y="410" as="targetPoint" />
          </mxGeometry>
        </mxCell>
        <mxCell id="IPOm-Gge5yzKx4CYsUPy-29" value="Verify Balance" style="ellipse;whiteSpace=wrap;html=1;" parent="1" vertex="1">
          <mxGeometry x="500" y="610" width="120" height="80" as="geometry" />
        </mxCell>
        <mxCell id="IPOm-Gge5yzKx4CYsUPy-30" value="" style="endArrow=none;html=1;rounded=0;exitX=1;exitY=0.5;exitDx=0;exitDy=0;entryX=0;entryY=0.5;entryDx=0;entryDy=0;" parent="1" source="IPOm-Gge5yzKx4CYsUPy-16" target="IPOm-Gge5yzKx4CYsUPy-29" edge="1">
          <mxGeometry width="50" height="50" relative="1" as="geometry">
            <mxPoint x="540" y="460" as="sourcePoint" />
            <mxPoint x="590" y="410" as="targetPoint" />
          </mxGeometry>
        </mxCell>
        <mxCell id="IPOm-Gge5yzKx4CYsUPy-31" value="&amp;lt;&amp;lt;Include&amp;gt;&amp;gt;" style="edgeLabel;html=1;align=center;verticalAlign=middle;resizable=0;points=[];" parent="IPOm-Gge5yzKx4CYsUPy-30" vertex="1" connectable="0">
          <mxGeometry x="0.4493" y="-2" relative="1" as="geometry">
            <mxPoint x="-17" as="offset" />
          </mxGeometry>
        </mxCell>
        <mxCell id="IPOm-Gge5yzKx4CYsUPy-32" value="" style="endArrow=none;html=1;rounded=0;exitX=1;exitY=0.5;exitDx=0;exitDy=0;" parent="1" source="IPOm-Gge5yzKx4CYsUPy-14" edge="1">
          <mxGeometry width="50" height="50" relative="1" as="geometry">
            <mxPoint x="540" y="460" as="sourcePoint" />
            <mxPoint x="690" y="360" as="targetPoint" />
          </mxGeometry>
        </mxCell>
        <mxCell id="IPOm-Gge5yzKx4CYsUPy-33" value="" style="endArrow=none;html=1;rounded=0;entryX=1;entryY=0.5;entryDx=0;entryDy=0;" parent="1" target="IPOm-Gge5yzKx4CYsUPy-15" edge="1">
          <mxGeometry width="50" height="50" relative="1" as="geometry">
            <mxPoint x="690" y="360" as="sourcePoint" />
            <mxPoint x="590" y="410" as="targetPoint" />
          </mxGeometry>
        </mxCell>
        <mxCell id="IPOm-Gge5yzKx4CYsUPy-35" value="" style="endArrow=none;html=1;rounded=0;exitX=1;exitY=0.5;exitDx=0;exitDy=0;" parent="1" source="IPOm-Gge5yzKx4CYsUPy-16" edge="1">
          <mxGeometry width="50" height="50" relative="1" as="geometry">
            <mxPoint x="540" y="560" as="sourcePoint" />
            <mxPoint x="690" y="360" as="targetPoint" />
          </mxGeometry>
        </mxCell>
        <mxCell id="IPOm-Gge5yzKx4CYsUPy-36" value="" style="endArrow=none;html=1;rounded=0;exitX=1;exitY=0.5;exitDx=0;exitDy=0;" parent="1" source="IPOm-Gge5yzKx4CYsUPy-13" edge="1">
          <mxGeometry width="50" height="50" relative="1" as="geometry">
            <mxPoint x="540" y="460" as="sourcePoint" />
            <mxPoint x="690" y="360" as="targetPoint" />
          </mxGeometry>
        </mxCell>
        <mxCell id="IPOm-Gge5yzKx4CYsUPy-37" value="Verify Card Number and Pin" style="ellipse;whiteSpace=wrap;html=1;" parent="1" vertex="1">
          <mxGeometry x="500" y="140" width="120" height="80" as="geometry" />
        </mxCell>
        <mxCell id="IPOm-Gge5yzKx4CYsUPy-38" value="&amp;nbsp;Login Failed" style="ellipse;whiteSpace=wrap;html=1;" parent="1" vertex="1">
          <mxGeometry x="500" y="230" width="120" height="80" as="geometry" />
        </mxCell>
        <mxCell id="IPOm-Gge5yzKx4CYsUPy-39" value="" style="endArrow=none;html=1;rounded=0;entryX=0;entryY=0.5;entryDx=0;entryDy=0;exitX=1;exitY=0.5;exitDx=0;exitDy=0;" parent="1" source="IPOm-Gge5yzKx4CYsUPy-12" target="IPOm-Gge5yzKx4CYsUPy-37" edge="1">
          <mxGeometry width="50" height="50" relative="1" as="geometry">
            <mxPoint x="350" y="430" as="sourcePoint" />
            <mxPoint x="400" y="380" as="targetPoint" />
          </mxGeometry>
        </mxCell>
        <mxCell id="IPOm-Gge5yzKx4CYsUPy-41" value="&amp;lt;&amp;lt;Include&amp;gt;&amp;gt;" style="edgeLabel;html=1;align=center;verticalAlign=middle;resizable=0;points=[];" parent="IPOm-Gge5yzKx4CYsUPy-39" vertex="1" connectable="0">
          <mxGeometry x="0.4553" y="1" relative="1" as="geometry">
            <mxPoint x="-18" y="3" as="offset" />
          </mxGeometry>
        </mxCell>
        <mxCell id="IPOm-Gge5yzKx4CYsUPy-40" value="" style="endArrow=none;html=1;rounded=0;entryX=0;entryY=0.5;entryDx=0;entryDy=0;exitX=1;exitY=0.5;exitDx=0;exitDy=0;" parent="1" source="IPOm-Gge5yzKx4CYsUPy-12" target="IPOm-Gge5yzKx4CYsUPy-38" edge="1">
          <mxGeometry width="50" height="50" relative="1" as="geometry">
            <mxPoint x="350" y="430" as="sourcePoint" />
            <mxPoint x="400" y="380" as="targetPoint" />
          </mxGeometry>
        </mxCell>
        <mxCell id="IPOm-Gge5yzKx4CYsUPy-42" value="&amp;lt;&amp;lt;Extend&amp;gt;&amp;gt;" style="edgeLabel;html=1;align=center;verticalAlign=middle;resizable=0;points=[];" parent="IPOm-Gge5yzKx4CYsUPy-40" vertex="1" connectable="0">
          <mxGeometry x="-0.2128" y="-2" relative="1" as="geometry">
            <mxPoint x="10" y="5" as="offset" />
          </mxGeometry>
        </mxCell>
        <mxCell id="IPOm-Gge5yzKx4CYsUPy-43" value="Transaction Failed" style="ellipse;whiteSpace=wrap;html=1;" parent="1" vertex="1">
          <mxGeometry x="500" y="700" width="120" height="80" as="geometry" />
        </mxCell>
        <mxCell id="IPOm-Gge5yzKx4CYsUPy-44" value="" style="endArrow=none;html=1;rounded=0;entryX=0;entryY=0.5;entryDx=0;entryDy=0;exitX=1;exitY=0.5;exitDx=0;exitDy=0;" parent="1" source="IPOm-Gge5yzKx4CYsUPy-16" target="IPOm-Gge5yzKx4CYsUPy-43" edge="1">
          <mxGeometry width="50" height="50" relative="1" as="geometry">
            <mxPoint x="350" y="530" as="sourcePoint" />
            <mxPoint x="400" y="480" as="targetPoint" />
          </mxGeometry>
        </mxCell>
        <mxCell id="IPOm-Gge5yzKx4CYsUPy-45" value="&amp;lt;&amp;lt;Extend&amp;gt;&amp;gt;" style="edgeLabel;html=1;align=center;verticalAlign=middle;resizable=0;points=[];" parent="IPOm-Gge5yzKx4CYsUPy-44" vertex="1" connectable="0">
          <mxGeometry x="-0.5474" y="-1" relative="1" as="geometry">
            <mxPoint x="17" y="11" as="offset" />
          </mxGeometry>
        </mxCell>
      </root>
    </mxGraphModel>
  </diagram>
  <diagram id="2KABlaz075TfeU6Is5fB" name="Page-2">
    <mxGraphModel dx="1065" dy="445" grid="1" gridSize="10" guides="1" tooltips="1" connect="1" arrows="1" fold="1" page="1" pageScale="1" pageWidth="827" pageHeight="1169" math="0" shadow="0">
      <root>
        <mxCell id="NyZxxG34KS7E5POLve_F-0" />
        <mxCell id="NyZxxG34KS7E5POLve_F-1" parent="NyZxxG34KS7E5POLve_F-0" />
        <mxCell id="OdPLy-7CmyR8f-gRgY1L-0" value="Customer" style="swimlane;fontStyle=1;align=center;verticalAlign=top;childLayout=stackLayout;horizontal=1;startSize=26;horizontalStack=0;resizeParent=1;resizeParentMax=0;resizeLast=0;collapsible=1;marginBottom=0;" vertex="1" parent="NyZxxG34KS7E5POLve_F-1">
          <mxGeometry x="170" y="126" width="180" height="94" as="geometry" />
        </mxCell>
        <mxCell id="OdPLy-7CmyR8f-gRgY1L-1" value="- cardNumber: integer&#xa;- pin: integer&#xa;" style="text;strokeColor=none;fillColor=none;align=left;verticalAlign=top;spacingLeft=4;spacingRight=4;overflow=hidden;rotatable=0;points=[[0,0.5],[1,0.5]];portConstraint=eastwest;" vertex="1" parent="OdPLy-7CmyR8f-gRgY1L-0">
          <mxGeometry y="26" width="180" height="34" as="geometry" />
        </mxCell>
        <mxCell id="OdPLy-7CmyR8f-gRgY1L-2" value="" style="line;strokeWidth=1;fillColor=none;align=left;verticalAlign=middle;spacingTop=-1;spacingLeft=3;spacingRight=3;rotatable=0;labelPosition=right;points=[];portConstraint=eastwest;" vertex="1" parent="OdPLy-7CmyR8f-gRgY1L-0">
          <mxGeometry y="60" width="180" height="8" as="geometry" />
        </mxCell>
        <mxCell id="OdPLy-7CmyR8f-gRgY1L-3" value="+ verifyCredentials(): boolean" style="text;strokeColor=none;fillColor=none;align=left;verticalAlign=top;spacingLeft=4;spacingRight=4;overflow=hidden;rotatable=0;points=[[0,0.5],[1,0.5]];portConstraint=eastwest;" vertex="1" parent="OdPLy-7CmyR8f-gRgY1L-0">
          <mxGeometry y="68" width="180" height="26" as="geometry" />
        </mxCell>
        <mxCell id="OdPLy-7CmyR8f-gRgY1L-35" value="Account" style="swimlane;fontStyle=1;align=center;verticalAlign=top;childLayout=stackLayout;horizontal=1;startSize=26;horizontalStack=0;resizeParent=1;resizeParentMax=0;resizeLast=0;collapsible=1;marginBottom=0;" vertex="1" parent="NyZxxG34KS7E5POLve_F-1">
          <mxGeometry x="410" y="130" width="160" height="86" as="geometry" />
        </mxCell>
        <mxCell id="OdPLy-7CmyR8f-gRgY1L-36" value="- balance: Integer" style="text;strokeColor=none;fillColor=none;align=left;verticalAlign=top;spacingLeft=4;spacingRight=4;overflow=hidden;rotatable=0;points=[[0,0.5],[1,0.5]];portConstraint=eastwest;" vertex="1" parent="OdPLy-7CmyR8f-gRgY1L-35">
          <mxGeometry y="26" width="160" height="26" as="geometry" />
        </mxCell>
        <mxCell id="OdPLy-7CmyR8f-gRgY1L-37" value="" style="line;strokeWidth=1;fillColor=none;align=left;verticalAlign=middle;spacingTop=-1;spacingLeft=3;spacingRight=3;rotatable=0;labelPosition=right;points=[];portConstraint=eastwest;" vertex="1" parent="OdPLy-7CmyR8f-gRgY1L-35">
          <mxGeometry y="52" width="160" height="8" as="geometry" />
        </mxCell>
        <mxCell id="OdPLy-7CmyR8f-gRgY1L-38" value="+ checkBalance(): Integer" style="text;strokeColor=none;fillColor=none;align=left;verticalAlign=top;spacingLeft=4;spacingRight=4;overflow=hidden;rotatable=0;points=[[0,0.5],[1,0.5]];portConstraint=eastwest;" vertex="1" parent="OdPLy-7CmyR8f-gRgY1L-35">
          <mxGeometry y="60" width="160" height="26" as="geometry" />
        </mxCell>
        <mxCell id="OdPLy-7CmyR8f-gRgY1L-39" style="edgeStyle=orthogonalEdgeStyle;rounded=0;orthogonalLoop=1;jettySize=auto;html=1;entryX=0.5;entryY=1;entryDx=0;entryDy=0;" edge="1" parent="NyZxxG34KS7E5POLve_F-1" source="OdPLy-7CmyR8f-gRgY1L-40" target="OdPLy-7CmyR8f-gRgY1L-35">
          <mxGeometry relative="1" as="geometry" />
        </mxCell>
        <mxCell id="OdPLy-7CmyR8f-gRgY1L-40" value="Fixed" style="swimlane;fontStyle=1;align=center;verticalAlign=top;childLayout=stackLayout;horizontal=1;startSize=26;horizontalStack=0;resizeParent=1;resizeParentMax=0;resizeLast=0;collapsible=1;marginBottom=0;" vertex="1" parent="NyZxxG34KS7E5POLve_F-1">
          <mxGeometry x="310" y="300" width="160" height="80" as="geometry" />
        </mxCell>
        <mxCell id="OdPLy-7CmyR8f-gRgY1L-41" value="" style="line;strokeWidth=1;fillColor=none;align=left;verticalAlign=middle;spacingTop=-1;spacingLeft=3;spacingRight=3;rotatable=0;labelPosition=right;points=[];portConstraint=eastwest;" vertex="1" parent="OdPLy-7CmyR8f-gRgY1L-40">
          <mxGeometry y="26" width="160" height="8" as="geometry" />
        </mxCell>
        <mxCell id="OdPLy-7CmyR8f-gRgY1L-42" value="+ deposit(integer): boolean&#xa;+ withdraw(integer): boolean" style="text;strokeColor=none;fillColor=none;align=left;verticalAlign=top;spacingLeft=4;spacingRight=4;overflow=hidden;rotatable=0;points=[[0,0.5],[1,0.5]];portConstraint=eastwest;" vertex="1" parent="OdPLy-7CmyR8f-gRgY1L-40">
          <mxGeometry y="34" width="160" height="46" as="geometry" />
        </mxCell>
        <mxCell id="OdPLy-7CmyR8f-gRgY1L-43" style="edgeStyle=orthogonalEdgeStyle;rounded=0;orthogonalLoop=1;jettySize=auto;html=1;entryX=0.5;entryY=1;entryDx=0;entryDy=0;" edge="1" parent="NyZxxG34KS7E5POLve_F-1" source="OdPLy-7CmyR8f-gRgY1L-44" target="OdPLy-7CmyR8f-gRgY1L-35">
          <mxGeometry relative="1" as="geometry" />
        </mxCell>
        <mxCell id="OdPLy-7CmyR8f-gRgY1L-44" value="Credit" style="swimlane;fontStyle=1;align=center;verticalAlign=top;childLayout=stackLayout;horizontal=1;startSize=26;horizontalStack=0;resizeParent=1;resizeParentMax=0;resizeLast=0;collapsible=1;marginBottom=0;" vertex="1" parent="NyZxxG34KS7E5POLve_F-1">
          <mxGeometry x="510" y="300" width="160" height="80" as="geometry" />
        </mxCell>
        <mxCell id="OdPLy-7CmyR8f-gRgY1L-45" value="" style="line;strokeWidth=1;fillColor=none;align=left;verticalAlign=middle;spacingTop=-1;spacingLeft=3;spacingRight=3;rotatable=0;labelPosition=right;points=[];portConstraint=eastwest;" vertex="1" parent="OdPLy-7CmyR8f-gRgY1L-44">
          <mxGeometry y="26" width="160" height="8" as="geometry" />
        </mxCell>
        <mxCell id="OdPLy-7CmyR8f-gRgY1L-46" value="+ deposit(integer): boolean&#xa;+ withdraw(integer): boolean" style="text;strokeColor=none;fillColor=none;align=left;verticalAlign=top;spacingLeft=4;spacingRight=4;overflow=hidden;rotatable=0;points=[[0,0.5],[1,0.5]];portConstraint=eastwest;" vertex="1" parent="OdPLy-7CmyR8f-gRgY1L-44">
          <mxGeometry y="34" width="160" height="46" as="geometry" />
        </mxCell>
        <mxCell id="OdPLy-7CmyR8f-gRgY1L-47" value="" style="endArrow=diamondThin;endFill=1;endSize=24;html=1;rounded=0;exitX=0;exitY=0.5;exitDx=0;exitDy=0;entryX=1;entryY=0.5;entryDx=0;entryDy=0;" edge="1" parent="NyZxxG34KS7E5POLve_F-1" source="OdPLy-7CmyR8f-gRgY1L-36" target="OdPLy-7CmyR8f-gRgY1L-1">
          <mxGeometry width="160" relative="1" as="geometry">
            <mxPoint x="370" y="290" as="sourcePoint" />
            <mxPoint x="370" y="140" as="targetPoint" />
          </mxGeometry>
        </mxCell>
        <mxCell id="OdPLy-7CmyR8f-gRgY1L-48" value="1" style="edgeLabel;html=1;align=center;verticalAlign=middle;resizable=0;points=[];" vertex="1" connectable="0" parent="OdPLy-7CmyR8f-gRgY1L-47">
          <mxGeometry x="-0.5611" y="1" relative="1" as="geometry">
            <mxPoint as="offset" />
          </mxGeometry>
        </mxCell>
        <mxCell id="t9Tb-cz7PWQ-EYbOR1Pm-0" value="1" style="edgeLabel;html=1;align=center;verticalAlign=middle;resizable=0;points=[];" vertex="1" connectable="0" parent="OdPLy-7CmyR8f-gRgY1L-47">
          <mxGeometry x="0.3278" y="-1" relative="1" as="geometry">
            <mxPoint y="-8" as="offset" />
          </mxGeometry>
        </mxCell>
      </root>
    </mxGraphModel>
  </diagram>
  <diagram id="Wt4ihaj69umgjp23Rb2z" name="Page-3">
    <mxGraphModel dx="1038" dy="556" grid="1" gridSize="10" guides="1" tooltips="1" connect="1" arrows="1" fold="1" page="1" pageScale="1" pageWidth="827" pageHeight="1169" math="0" shadow="0">
      <root>
        <mxCell id="JfYg1VF6McSwDUb-gTk0-0" />
        <mxCell id="JfYg1VF6McSwDUb-gTk0-1" parent="JfYg1VF6McSwDUb-gTk0-0" />
        <mxCell id="JfYg1VF6McSwDUb-gTk0-4" value="Customer" style="rounded=0;whiteSpace=wrap;html=1;" vertex="1" parent="JfYg1VF6McSwDUb-gTk0-1">
          <mxGeometry x="200" y="120" width="120" height="50" as="geometry" />
        </mxCell>
        <mxCell id="JfYg1VF6McSwDUb-gTk0-5" value="Automated Banking System" style="ellipse;whiteSpace=wrap;html=1;aspect=fixed;" vertex="1" parent="JfYg1VF6McSwDUb-gTk0-1">
          <mxGeometry x="470" y="50" width="160" height="160" as="geometry" />
        </mxCell>
        <mxCell id="JfYg1VF6McSwDUb-gTk0-7" value="" style="curved=1;endArrow=classic;html=1;rounded=0;exitX=0.5;exitY=0;exitDx=0;exitDy=0;entryX=0;entryY=0;entryDx=0;entryDy=0;" edge="1" parent="JfYg1VF6McSwDUb-gTk0-1" source="JfYg1VF6McSwDUb-gTk0-4" target="JfYg1VF6McSwDUb-gTk0-5">
          <mxGeometry width="50" height="50" relative="1" as="geometry">
            <mxPoint x="390" y="100" as="sourcePoint" />
            <mxPoint x="440" y="50" as="targetPoint" />
            <Array as="points">
              <mxPoint x="320" y="50" />
              <mxPoint x="420" y="30" />
            </Array>
          </mxGeometry>
        </mxCell>
        <mxCell id="JfYg1VF6McSwDUb-gTk0-12" value="Data-items" style="edgeLabel;html=1;align=center;verticalAlign=middle;resizable=0;points=[];" vertex="1" connectable="0" parent="JfYg1VF6McSwDUb-gTk0-7">
          <mxGeometry x="0.1172" y="-1" relative="1" as="geometry">
            <mxPoint as="offset" />
          </mxGeometry>
        </mxCell>
        <mxCell id="JfYg1VF6McSwDUb-gTk0-10" value="" style="curved=1;endArrow=classic;html=1;rounded=0;entryX=0.5;entryY=1;entryDx=0;entryDy=0;" edge="1" parent="JfYg1VF6McSwDUb-gTk0-1" source="JfYg1VF6McSwDUb-gTk0-5" target="JfYg1VF6McSwDUb-gTk0-4">
          <mxGeometry width="50" height="50" relative="1" as="geometry">
            <mxPoint x="390" y="350" as="sourcePoint" />
            <mxPoint x="440" y="300" as="targetPoint" />
            <Array as="points">
              <mxPoint x="450" y="230" />
              <mxPoint x="340" y="230" />
            </Array>
          </mxGeometry>
        </mxCell>
        <mxCell id="JfYg1VF6McSwDUb-gTk0-13" value="Output" style="edgeLabel;html=1;align=center;verticalAlign=middle;resizable=0;points=[];" vertex="1" connectable="0" parent="JfYg1VF6McSwDUb-gTk0-10">
          <mxGeometry x="-0.0596" y="-1" relative="1" as="geometry">
            <mxPoint as="offset" />
          </mxGeometry>
        </mxCell>
        <mxCell id="JfYg1VF6McSwDUb-gTk0-14" value="Context Diagram(Level 0 DFD)" style="text;html=1;align=center;verticalAlign=middle;resizable=0;points=[];autosize=1;strokeColor=none;fillColor=none;" vertex="1" parent="JfYg1VF6McSwDUb-gTk0-1">
          <mxGeometry x="290" y="250" width="180" height="20" as="geometry" />
        </mxCell>
        <mxCell id="JfYg1VF6McSwDUb-gTk0-15" value="Login" style="ellipse;whiteSpace=wrap;html=1;aspect=fixed;" vertex="1" parent="JfYg1VF6McSwDUb-gTk0-1">
          <mxGeometry x="160" y="363" width="80" height="80" as="geometry" />
        </mxCell>
        <mxCell id="JfYg1VF6McSwDUb-gTk0-17" value="Database" style="html=1;dashed=0;whitespace=wrap;shape=partialRectangle;right=0;left=0;" vertex="1" parent="JfYg1VF6McSwDUb-gTk0-1">
          <mxGeometry x="300" y="383" width="100" height="30" as="geometry" />
        </mxCell>
        <mxCell id="JfYg1VF6McSwDUb-gTk0-20" value="" style="curved=1;endArrow=classic;html=1;rounded=0;" edge="1" parent="JfYg1VF6McSwDUb-gTk0-1">
          <mxGeometry width="50" height="50" relative="1" as="geometry">
            <mxPoint x="60" y="443" as="sourcePoint" />
            <mxPoint x="160" y="403" as="targetPoint" />
            <Array as="points">
              <mxPoint x="70" y="423" />
            </Array>
          </mxGeometry>
        </mxCell>
        <mxCell id="JfYg1VF6McSwDUb-gTk0-21" value="Data Items" style="edgeLabel;html=1;align=center;verticalAlign=middle;resizable=0;points=[];" vertex="1" connectable="0" parent="JfYg1VF6McSwDUb-gTk0-20">
          <mxGeometry x="-0.2229" y="-1" relative="1" as="geometry">
            <mxPoint x="-1" as="offset" />
          </mxGeometry>
        </mxCell>
        <mxCell id="JfYg1VF6McSwDUb-gTk0-45" value="Data Items" style="edgeLabel;html=1;align=center;verticalAlign=middle;resizable=0;points=[];" vertex="1" connectable="0" parent="JfYg1VF6McSwDUb-gTk0-20">
          <mxGeometry x="-0.2229" y="-1" relative="1" as="geometry">
            <mxPoint x="-1" as="offset" />
          </mxGeometry>
        </mxCell>
        <mxCell id="JfYg1VF6McSwDUb-gTk0-22" value="" style="curved=1;endArrow=classic;html=1;rounded=0;entryX=0.5;entryY=0;entryDx=0;entryDy=0;" edge="1" parent="JfYg1VF6McSwDUb-gTk0-1" source="JfYg1VF6McSwDUb-gTk0-15" target="JfYg1VF6McSwDUb-gTk0-17">
          <mxGeometry width="50" height="50" relative="1" as="geometry">
            <mxPoint x="240" y="363" as="sourcePoint" />
            <mxPoint x="290" y="313" as="targetPoint" />
            <Array as="points">
              <mxPoint x="240" y="313" />
            </Array>
          </mxGeometry>
        </mxCell>
        <mxCell id="JfYg1VF6McSwDUb-gTk0-23" value="User Detals" style="edgeLabel;html=1;align=center;verticalAlign=middle;resizable=0;points=[];" vertex="1" connectable="0" parent="JfYg1VF6McSwDUb-gTk0-22">
          <mxGeometry x="0.0228" y="-14" relative="1" as="geometry">
            <mxPoint as="offset" />
          </mxGeometry>
        </mxCell>
        <mxCell id="JfYg1VF6McSwDUb-gTk0-26" value="DashBoard" style="shape=ellipse;html=1;dashed=0;whitespace=wrap;aspect=fixed;perimeter=ellipsePerimeter;" vertex="1" parent="JfYg1VF6McSwDUb-gTk0-1">
          <mxGeometry x="470" y="353" width="80" height="80" as="geometry" />
        </mxCell>
        <mxCell id="JfYg1VF6McSwDUb-gTk0-27" value="" style="curved=1;endArrow=classic;html=1;rounded=0;exitX=0.5;exitY=1;exitDx=0;exitDy=0;entryX=0.5;entryY=1;entryDx=0;entryDy=0;" edge="1" parent="JfYg1VF6McSwDUb-gTk0-1" source="JfYg1VF6McSwDUb-gTk0-17" target="JfYg1VF6McSwDUb-gTk0-26">
          <mxGeometry width="50" height="50" relative="1" as="geometry">
            <mxPoint x="410" y="423" as="sourcePoint" />
            <mxPoint x="460" y="373" as="targetPoint" />
            <Array as="points">
              <mxPoint x="390" y="453" />
              <mxPoint x="450" y="453" />
            </Array>
          </mxGeometry>
        </mxCell>
        <mxCell id="JfYg1VF6McSwDUb-gTk0-28" value="Requests" style="edgeLabel;html=1;align=center;verticalAlign=middle;resizable=0;points=[];" vertex="1" connectable="0" parent="JfYg1VF6McSwDUb-gTk0-27">
          <mxGeometry x="0.1164" y="-2" relative="1" as="geometry">
            <mxPoint as="offset" />
          </mxGeometry>
        </mxCell>
        <mxCell id="JfYg1VF6McSwDUb-gTk0-29" value="Context Diagram(Level 0 DFD)" style="text;html=1;align=center;verticalAlign=middle;resizable=0;points=[];autosize=1;strokeColor=none;fillColor=none;" vertex="1" parent="JfYg1VF6McSwDUb-gTk0-1">
          <mxGeometry x="290" y="250" width="180" height="20" as="geometry" />
        </mxCell>
        <mxCell id="JfYg1VF6McSwDUb-gTk0-41" value="Login&lt;br&gt;0.1" style="ellipse;whiteSpace=wrap;html=1;aspect=fixed;" vertex="1" parent="JfYg1VF6McSwDUb-gTk0-1">
          <mxGeometry x="160" y="363" width="80" height="80" as="geometry" />
        </mxCell>
        <mxCell id="JfYg1VF6McSwDUb-gTk0-43" value="Database" style="html=1;dashed=0;whitespace=wrap;shape=partialRectangle;right=0;left=0;" vertex="1" parent="JfYg1VF6McSwDUb-gTk0-1">
          <mxGeometry x="300" y="383" width="100" height="30" as="geometry" />
        </mxCell>
        <mxCell id="JfYg1VF6McSwDUb-gTk0-46" value="" style="curved=1;endArrow=classic;html=1;rounded=0;entryX=0.5;entryY=0;entryDx=0;entryDy=0;" edge="1" source="JfYg1VF6McSwDUb-gTk0-41" target="JfYg1VF6McSwDUb-gTk0-43" parent="JfYg1VF6McSwDUb-gTk0-1">
          <mxGeometry width="50" height="50" relative="1" as="geometry">
            <mxPoint x="240" y="363" as="sourcePoint" />
            <mxPoint x="290" y="313" as="targetPoint" />
            <Array as="points">
              <mxPoint x="240" y="313" />
            </Array>
          </mxGeometry>
        </mxCell>
        <mxCell id="JfYg1VF6McSwDUb-gTk0-47" value="User Detals" style="edgeLabel;html=1;align=center;verticalAlign=middle;resizable=0;points=[];" vertex="1" connectable="0" parent="JfYg1VF6McSwDUb-gTk0-46">
          <mxGeometry x="0.0228" y="-14" relative="1" as="geometry">
            <mxPoint as="offset" />
          </mxGeometry>
        </mxCell>
        <mxCell id="JfYg1VF6McSwDUb-gTk0-48" value="DashBoard&lt;br&gt;0.2" style="shape=ellipse;html=1;dashed=0;whitespace=wrap;aspect=fixed;perimeter=ellipsePerimeter;" vertex="1" parent="JfYg1VF6McSwDUb-gTk0-1">
          <mxGeometry x="470" y="353" width="80" height="80" as="geometry" />
        </mxCell>
        <mxCell id="JfYg1VF6McSwDUb-gTk0-49" value="" style="curved=1;endArrow=classic;html=1;rounded=0;exitX=0.5;exitY=1;exitDx=0;exitDy=0;entryX=0.5;entryY=1;entryDx=0;entryDy=0;" edge="1" source="JfYg1VF6McSwDUb-gTk0-43" target="JfYg1VF6McSwDUb-gTk0-48" parent="JfYg1VF6McSwDUb-gTk0-1">
          <mxGeometry width="50" height="50" relative="1" as="geometry">
            <mxPoint x="410" y="423" as="sourcePoint" />
            <mxPoint x="460" y="373" as="targetPoint" />
            <Array as="points">
              <mxPoint x="390" y="453" />
              <mxPoint x="450" y="453" />
            </Array>
          </mxGeometry>
        </mxCell>
        <mxCell id="JfYg1VF6McSwDUb-gTk0-50" value="Requests" style="edgeLabel;html=1;align=center;verticalAlign=middle;resizable=0;points=[];" vertex="1" connectable="0" parent="JfYg1VF6McSwDUb-gTk0-49">
          <mxGeometry x="0.1164" y="-2" relative="1" as="geometry">
            <mxPoint as="offset" />
          </mxGeometry>
        </mxCell>
        <mxCell id="JfYg1VF6McSwDUb-gTk0-51" value="Context Diagram(Level 0 DFD)" style="text;html=1;align=center;verticalAlign=middle;resizable=0;points=[];autosize=1;strokeColor=none;fillColor=none;" vertex="1" parent="JfYg1VF6McSwDUb-gTk0-1">
          <mxGeometry x="290" y="250" width="180" height="20" as="geometry" />
        </mxCell>
        <mxCell id="JfYg1VF6McSwDUb-gTk0-53" value="" style="curved=1;endArrow=classic;html=1;rounded=0;exitX=0.5;exitY=0;exitDx=0;exitDy=0;" edge="1" parent="JfYg1VF6McSwDUb-gTk0-1" source="JfYg1VF6McSwDUb-gTk0-48">
          <mxGeometry width="50" height="50" relative="1" as="geometry">
            <mxPoint x="490" y="350" as="sourcePoint" />
            <mxPoint x="360" y="380" as="targetPoint" />
            <Array as="points">
              <mxPoint x="410" y="310" />
            </Array>
          </mxGeometry>
        </mxCell>
        <mxCell id="JfYg1VF6McSwDUb-gTk0-54" value="Update" style="text;html=1;align=center;verticalAlign=middle;resizable=0;points=[];autosize=1;strokeColor=none;fillColor=none;" vertex="1" parent="JfYg1VF6McSwDUb-gTk0-1">
          <mxGeometry x="404" y="320" width="50" height="20" as="geometry" />
        </mxCell>
        <mxCell id="JfYg1VF6McSwDUb-gTk0-70" value="Level-1 DFD" style="text;html=1;strokeColor=none;fillColor=none;align=center;verticalAlign=middle;whiteSpace=wrap;rounded=0;" vertex="1" parent="JfYg1VF6McSwDUb-gTk0-1">
          <mxGeometry x="365" y="500" width="110" height="30" as="geometry" />
        </mxCell>
        <mxCell id="JfYg1VF6McSwDUb-gTk0-71" value="Enter &lt;br&gt;Credentials&lt;br&gt;0.1.1" style="shape=ellipse;html=1;dashed=0;whitespace=wrap;aspect=fixed;perimeter=ellipsePerimeter;" vertex="1" parent="JfYg1VF6McSwDUb-gTk0-1">
          <mxGeometry x="90" y="620" width="80" height="80" as="geometry" />
        </mxCell>
        <mxCell id="JfYg1VF6McSwDUb-gTk0-72" value="Verify&lt;br&gt;Credentials&lt;br&gt;0.1.2" style="shape=ellipse;html=1;dashed=0;whitespace=wrap;aspect=fixed;perimeter=ellipsePerimeter;" vertex="1" parent="JfYg1VF6McSwDUb-gTk0-1">
          <mxGeometry x="210" y="540" width="80" height="80" as="geometry" />
        </mxCell>
        <mxCell id="JfYg1VF6McSwDUb-gTk0-73" value="Database" style="html=1;dashed=0;whitespace=wrap;shape=partialRectangle;right=0;left=0;" vertex="1" parent="JfYg1VF6McSwDUb-gTk0-1">
          <mxGeometry x="304" y="650" width="100" height="30" as="geometry" />
        </mxCell>
        <mxCell id="JfYg1VF6McSwDUb-gTk0-76" value="Withdraw&lt;br&gt;o.2.1" style="shape=ellipse;html=1;dashed=0;whitespace=wrap;aspect=fixed;perimeter=ellipsePerimeter;" vertex="1" parent="JfYg1VF6McSwDUb-gTk0-1">
          <mxGeometry x="466" y="680" width="84" height="84" as="geometry" />
        </mxCell>
        <mxCell id="JfYg1VF6McSwDUb-gTk0-77" value="Deposit&lt;br&gt;0.2.2" style="shape=ellipse;html=1;dashed=0;whitespace=wrap;aspect=fixed;perimeter=ellipsePerimeter;" vertex="1" parent="JfYg1VF6McSwDUb-gTk0-1">
          <mxGeometry x="470" y="530" width="80" height="80" as="geometry" />
        </mxCell>
        <mxCell id="JfYg1VF6McSwDUb-gTk0-78" value="Check&lt;br&gt;Balance&lt;br&gt;0.2.3" style="shape=ellipse;html=1;dashed=0;whitespace=wrap;aspect=fixed;perimeter=ellipsePerimeter;" vertex="1" parent="JfYg1VF6McSwDUb-gTk0-1">
          <mxGeometry x="475" y="790" width="90" height="90" as="geometry" />
        </mxCell>
        <mxCell id="JfYg1VF6McSwDUb-gTk0-79" value="" style="curved=1;endArrow=classic;html=1;rounded=0;" edge="1" parent="JfYg1VF6McSwDUb-gTk0-1">
          <mxGeometry width="50" height="50" relative="1" as="geometry">
            <mxPoint x="20" y="730" as="sourcePoint" />
            <mxPoint x="90" y="660" as="targetPoint" />
            <Array as="points">
              <mxPoint x="20" y="680" />
              <mxPoint x="40" y="660" />
            </Array>
          </mxGeometry>
        </mxCell>
        <mxCell id="JfYg1VF6McSwDUb-gTk0-81" value="" style="curved=1;endArrow=classic;html=1;rounded=0;exitX=0.5;exitY=0;exitDx=0;exitDy=0;entryX=0;entryY=0;entryDx=0;entryDy=0;" edge="1" parent="JfYg1VF6McSwDUb-gTk0-1" source="JfYg1VF6McSwDUb-gTk0-71" target="JfYg1VF6McSwDUb-gTk0-72">
          <mxGeometry width="50" height="50" relative="1" as="geometry">
            <mxPoint x="140" y="610" as="sourcePoint" />
            <mxPoint x="190" y="560" as="targetPoint" />
            <Array as="points">
              <mxPoint x="140" y="560" />
            </Array>
          </mxGeometry>
        </mxCell>
        <mxCell id="JfYg1VF6McSwDUb-gTk0-83" value="" style="curved=1;endArrow=classic;html=1;rounded=0;exitX=1;exitY=0.375;exitDx=0;exitDy=0;exitPerimeter=0;entryX=0;entryY=0;entryDx=0;entryDy=0;" edge="1" parent="JfYg1VF6McSwDUb-gTk0-1" source="JfYg1VF6McSwDUb-gTk0-72" target="JfYg1VF6McSwDUb-gTk0-73">
          <mxGeometry width="50" height="50" relative="1" as="geometry">
            <mxPoint x="360" y="580" as="sourcePoint" />
            <mxPoint x="310" y="640" as="targetPoint" />
            <Array as="points">
              <mxPoint x="310" y="580" />
              <mxPoint x="320" y="620" />
            </Array>
          </mxGeometry>
        </mxCell>
        <mxCell id="JfYg1VF6McSwDUb-gTk0-85" value="" style="curved=1;endArrow=classic;html=1;rounded=0;exitX=1;exitY=0.25;exitDx=0;exitDy=0;entryX=0;entryY=1;entryDx=0;entryDy=0;" edge="1" parent="JfYg1VF6McSwDUb-gTk0-1" source="JfYg1VF6McSwDUb-gTk0-73" target="JfYg1VF6McSwDUb-gTk0-77">
          <mxGeometry width="50" height="50" relative="1" as="geometry">
            <mxPoint x="380" y="640" as="sourcePoint" />
            <mxPoint x="430" y="590" as="targetPoint" />
            <Array as="points">
              <mxPoint x="470" y="650" />
            </Array>
          </mxGeometry>
        </mxCell>
        <mxCell id="JfYg1VF6McSwDUb-gTk0-87" value="" style="curved=1;endArrow=classic;html=1;rounded=0;entryX=0.257;entryY=0.081;entryDx=0;entryDy=0;entryPerimeter=0;" edge="1" parent="JfYg1VF6McSwDUb-gTk0-1" target="JfYg1VF6McSwDUb-gTk0-76">
          <mxGeometry width="50" height="50" relative="1" as="geometry">
            <mxPoint x="410" y="670" as="sourcePoint" />
            <mxPoint x="390" y="740" as="targetPoint" />
            <Array as="points">
              <mxPoint x="440" y="660" />
              <mxPoint x="470" y="670" />
            </Array>
          </mxGeometry>
        </mxCell>
        <mxCell id="JfYg1VF6McSwDUb-gTk0-92" value="" style="curved=1;endArrow=classic;html=1;rounded=0;exitX=0.604;exitY=0.987;exitDx=0;exitDy=0;exitPerimeter=0;" edge="1" parent="JfYg1VF6McSwDUb-gTk0-1" source="JfYg1VF6McSwDUb-gTk0-73" target="JfYg1VF6McSwDUb-gTk0-78">
          <mxGeometry width="50" height="50" relative="1" as="geometry">
            <mxPoint x="340" y="710" as="sourcePoint" />
            <mxPoint x="380" y="770" as="targetPoint" />
            <Array as="points">
              <mxPoint x="350" y="750" />
              <mxPoint x="400" y="800" />
            </Array>
          </mxGeometry>
        </mxCell>
        <mxCell id="JfYg1VF6McSwDUb-gTk0-94" value="" style="curved=1;endArrow=classic;html=1;rounded=0;" edge="1" parent="JfYg1VF6McSwDUb-gTk0-1" source="JfYg1VF6McSwDUb-gTk0-77">
          <mxGeometry width="50" height="50" relative="1" as="geometry">
            <mxPoint x="440" y="580" as="sourcePoint" />
            <mxPoint x="380" y="640" as="targetPoint" />
            <Array as="points">
              <mxPoint x="410" y="590" />
              <mxPoint x="390" y="610" />
            </Array>
          </mxGeometry>
        </mxCell>
        <mxCell id="JfYg1VF6McSwDUb-gTk0-100" value="Update" style="edgeLabel;html=1;align=center;verticalAlign=middle;resizable=0;points=[];" vertex="1" connectable="0" parent="JfYg1VF6McSwDUb-gTk0-94">
          <mxGeometry x="-0.1767" y="2" relative="1" as="geometry">
            <mxPoint x="-8" as="offset" />
          </mxGeometry>
        </mxCell>
        <mxCell id="JfYg1VF6McSwDUb-gTk0-96" value="" style="curved=1;endArrow=classic;html=1;rounded=0;exitX=0.01;exitY=0.367;exitDx=0;exitDy=0;exitPerimeter=0;" edge="1" parent="JfYg1VF6McSwDUb-gTk0-1" source="JfYg1VF6McSwDUb-gTk0-76">
          <mxGeometry width="50" height="50" relative="1" as="geometry">
            <mxPoint x="450" y="750" as="sourcePoint" />
            <mxPoint x="400" y="690" as="targetPoint" />
            <Array as="points">
              <mxPoint x="420" y="720" />
            </Array>
          </mxGeometry>
        </mxCell>
        <mxCell id="JfYg1VF6McSwDUb-gTk0-99" value="Verify &lt;br&gt;Amount&lt;br&gt;0.2.3" style="shape=ellipse;html=1;dashed=0;whitespace=wrap;aspect=fixed;perimeter=ellipsePerimeter;" vertex="1" parent="JfYg1VF6McSwDUb-gTk0-1">
          <mxGeometry x="580" y="585" width="80" height="80" as="geometry" />
        </mxCell>
        <mxCell id="JfYg1VF6McSwDUb-gTk0-101" value="Update" style="edgeLabel;html=1;align=center;verticalAlign=middle;resizable=0;points=[];" vertex="1" connectable="0" parent="JfYg1VF6McSwDUb-gTk0-1">
          <mxGeometry x="429.99997145809346" y="600.0016135138184" as="geometry">
            <mxPoint x="-2" y="111" as="offset" />
          </mxGeometry>
        </mxCell>
        <mxCell id="JfYg1VF6McSwDUb-gTk0-102" value="Generate&lt;br&gt;Report&lt;br&gt;0.2.5" style="ellipse;whiteSpace=wrap;html=1;aspect=fixed;" vertex="1" parent="JfYg1VF6McSwDUb-gTk0-1">
          <mxGeometry x="700" y="665" width="80" height="80" as="geometry" />
        </mxCell>
        <mxCell id="JfYg1VF6McSwDUb-gTk0-105" value="Verify&lt;br&gt;Baance&lt;br&gt;0.2.4" style="shape=ellipse;html=1;dashed=0;whitespace=wrap;aspect=fixed;perimeter=ellipsePerimeter;" vertex="1" parent="JfYg1VF6McSwDUb-gTk0-1">
          <mxGeometry x="580" y="670" width="80" height="80" as="geometry" />
        </mxCell>
        <mxCell id="JfYg1VF6McSwDUb-gTk0-106" value="" style="curved=1;endArrow=classic;html=1;rounded=0;entryX=0;entryY=1;entryDx=0;entryDy=0;" edge="1" parent="JfYg1VF6McSwDUb-gTk0-1" source="JfYg1VF6McSwDUb-gTk0-76" target="JfYg1VF6McSwDUb-gTk0-105">
          <mxGeometry width="50" height="50" relative="1" as="geometry">
            <mxPoint x="540" y="760" as="sourcePoint" />
            <mxPoint x="600" y="760" as="targetPoint" />
            <Array as="points">
              <mxPoint x="570" y="760" />
            </Array>
          </mxGeometry>
        </mxCell>
        <mxCell id="JfYg1VF6McSwDUb-gTk0-108" value="" style="curved=1;endArrow=classic;html=1;rounded=0;entryX=1;entryY=0;entryDx=0;entryDy=0;exitX=0.035;exitY=0.33;exitDx=0;exitDy=0;exitPerimeter=0;" edge="1" parent="JfYg1VF6McSwDUb-gTk0-1" source="JfYg1VF6McSwDUb-gTk0-105" target="JfYg1VF6McSwDUb-gTk0-76">
          <mxGeometry width="50" height="50" relative="1" as="geometry">
            <mxPoint x="576" y="699" as="sourcePoint" />
            <mxPoint x="524.14" y="720.86" as="targetPoint" />
            <Array as="points">
              <mxPoint x="560" y="680" />
            </Array>
          </mxGeometry>
        </mxCell>
        <mxCell id="JfYg1VF6McSwDUb-gTk0-113" value="" style="curved=1;endArrow=classic;html=1;rounded=0;entryX=0.005;entryY=0.613;entryDx=0;entryDy=0;entryPerimeter=0;exitX=0.77;exitY=0.93;exitDx=0;exitDy=0;exitPerimeter=0;" edge="1" parent="JfYg1VF6McSwDUb-gTk0-1" source="JfYg1VF6McSwDUb-gTk0-77" target="JfYg1VF6McSwDUb-gTk0-99">
          <mxGeometry width="50" height="50" relative="1" as="geometry">
            <mxPoint x="560" y="671" as="sourcePoint" />
            <mxPoint x="611.7157287525379" y="649.2842712474621" as="targetPoint" />
            <Array as="points">
              <mxPoint x="550" y="630" />
            </Array>
          </mxGeometry>
        </mxCell>
        <mxCell id="JfYg1VF6McSwDUb-gTk0-114" value="" style="curved=1;endArrow=classic;html=1;rounded=0;entryX=1;entryY=0.5;entryDx=0;entryDy=0;exitX=0.265;exitY=0.033;exitDx=0;exitDy=0;exitPerimeter=0;" edge="1" parent="JfYg1VF6McSwDUb-gTk0-1" source="JfYg1VF6McSwDUb-gTk0-99" target="JfYg1VF6McSwDUb-gTk0-77">
          <mxGeometry width="50" height="50" relative="1" as="geometry">
            <mxPoint x="602" y="588" as="sourcePoint" />
            <mxPoint x="544.1399999999999" y="606.8600000000001" as="targetPoint" />
            <Array as="points">
              <mxPoint x="580" y="570" />
            </Array>
          </mxGeometry>
        </mxCell>
        <mxCell id="JfYg1VF6McSwDUb-gTk0-116" value="" style="curved=1;endArrow=classic;html=1;rounded=0;entryX=0.5;entryY=0;entryDx=0;entryDy=0;exitX=1;exitY=0;exitDx=0;exitDy=0;" edge="1" parent="JfYg1VF6McSwDUb-gTk0-1" source="JfYg1VF6McSwDUb-gTk0-77" target="JfYg1VF6McSwDUb-gTk0-102">
          <mxGeometry width="50" height="50" relative="1" as="geometry">
            <mxPoint x="680" y="500" as="sourcePoint" />
            <mxPoint x="740" y="660" as="targetPoint" />
            <Array as="points">
              <mxPoint x="650" y="550" />
              <mxPoint x="690" y="590" />
            </Array>
          </mxGeometry>
        </mxCell>
        <mxCell id="JfYg1VF6McSwDUb-gTk0-121" value="" style="curved=1;endArrow=classic;html=1;rounded=0;exitX=1;exitY=0.5;exitDx=0;exitDy=0;" edge="1" parent="JfYg1VF6McSwDUb-gTk0-1" source="JfYg1VF6McSwDUb-gTk0-78" target="JfYg1VF6McSwDUb-gTk0-102">
          <mxGeometry width="50" height="50" relative="1" as="geometry">
            <mxPoint x="630" y="840" as="sourcePoint" />
            <mxPoint x="740" y="740" as="targetPoint" />
            <Array as="points">
              <mxPoint x="680" y="840" />
            </Array>
          </mxGeometry>
        </mxCell>
        <mxCell id="JfYg1VF6McSwDUb-gTk0-124" value="" style="curved=1;endArrow=classic;html=1;rounded=0;exitX=0.695;exitY=0.957;exitDx=0;exitDy=0;exitPerimeter=0;entryX=0;entryY=0.688;entryDx=0;entryDy=0;entryPerimeter=0;" edge="1" parent="JfYg1VF6McSwDUb-gTk0-1" source="JfYg1VF6McSwDUb-gTk0-76" target="JfYg1VF6McSwDUb-gTk0-102">
          <mxGeometry width="50" height="50" relative="1" as="geometry">
            <mxPoint x="525" y="795" as="sourcePoint" />
            <mxPoint x="700" y="710" as="targetPoint" />
            <Array as="points">
              <mxPoint x="640" y="800" />
            </Array>
          </mxGeometry>
        </mxCell>
        <mxCell id="JfYg1VF6McSwDUb-gTk0-125" value="Level-2 DFD" style="text;html=1;align=center;verticalAlign=middle;resizable=0;points=[];autosize=1;strokeColor=none;fillColor=none;" vertex="1" parent="JfYg1VF6McSwDUb-gTk0-1">
          <mxGeometry x="380" y="890" width="80" height="20" as="geometry" />
        </mxCell>
      </root>
    </mxGraphModel>
  </diagram>
</mxfile>
